<svg width="32" height="32" viewBox="0 0 32 32" fill="none" xmlns="http://www.w3.org/2000/svg">
<mask id="mask0_1902_141" style="mask-type:alpha" maskUnits="userSpaceOnUse" x="0" y="0" width="32" height="32">
<rect width="32" height="32" fill="#D9D9D9"/>
</mask>
<g mask="url(#mask0_1902_141)">
<path d="M8.03044 23.0566C9.16377 22.2155 10.3984 21.5514 11.7343 21.0643C13.0702 20.5771 14.492 20.3335 15.9996 20.3335C17.5073 20.3335 18.9291 20.5771 20.265 21.0643C21.6009 21.5514 22.8355 22.2155 23.9688 23.0566C24.7979 22.1455 25.4548 21.0908 25.9394 19.8925C26.424 18.6942 26.6663 17.3967 26.6663 16.0001C26.6663 13.0446 25.6274 10.5279 23.5496 8.45013C21.4719 6.37235 18.9552 5.33346 15.9996 5.33346C13.0441 5.33346 10.5274 6.37235 8.44964 8.45013C6.37186 10.5279 5.33297 13.0446 5.33297 16.0001C5.33297 17.3967 5.57529 18.6942 6.05991 19.8925C6.54453 21.0908 7.20137 22.1455 8.03044 23.0566ZM16 17.0001C14.7827 17.0001 13.7561 16.5823 12.9202 15.7467C12.0843 14.911 11.6663 13.8845 11.6663 12.6672C11.6663 11.4498 12.0842 10.4232 12.9198 9.58733C13.7554 8.75144 14.7819 8.3335 15.9992 8.3335C17.2166 8.3335 18.2432 8.75131 19.0791 9.58693C19.915 10.4226 20.3329 11.4491 20.3329 12.6664C20.3329 13.8838 19.9151 14.9104 19.0795 15.7463C18.2439 16.5822 17.2174 17.0001 16 17.0001ZM15.9996 28.6668C14.2407 28.6668 12.5907 28.336 11.0497 27.6744C9.50865 27.0129 8.16805 26.1121 7.02787 24.9719C5.88772 23.8317 4.98687 22.4911 4.32534 20.9501C3.66379 19.4091 3.33301 17.7591 3.33301 16.0001C3.33301 14.2412 3.66379 12.5912 4.32534 11.0502C4.98687 9.50914 5.88772 8.16854 7.02787 7.02836C8.16805 5.88821 9.50865 4.98736 11.0497 4.32583C12.5907 3.66427 14.2407 3.3335 15.9996 3.3335C17.7586 3.3335 19.4086 3.66427 20.9496 4.32583C22.4906 4.98736 23.8312 5.88821 24.9714 7.02836C26.1116 8.16854 27.0124 9.50914 27.6739 11.0502C28.3355 12.5912 28.6663 14.2412 28.6663 16.0001C28.6663 17.7591 28.3355 19.4091 27.6739 20.9501C27.0124 22.4911 26.1116 23.8317 24.9714 24.9719C23.8312 26.1121 22.4906 27.0129 20.9496 27.6744C19.4086 28.336 17.7586 28.6668 15.9996 28.6668ZM15.9996 26.6668C17.2031 26.6668 18.3633 26.4732 19.4804 26.086C20.5975 25.6989 21.5894 25.1574 22.4561 24.4617C21.5894 23.7916 20.6103 23.2694 19.5189 22.895C18.4274 22.5206 17.2544 22.3334 15.9996 22.3334C14.7449 22.3334 13.5697 22.5185 12.474 22.8886C11.3782 23.2587 10.4013 23.783 9.54321 24.4617C10.4099 25.1574 11.4018 25.6989 12.5189 26.086C13.636 26.4732 14.7962 26.6668 15.9996 26.6668ZM15.9996 15.0002C16.6629 15.0002 17.2176 14.7771 17.6638 14.3309C18.1099 13.8848 18.333 13.33 18.333 12.6668C18.333 12.0036 18.1099 11.4488 17.6638 11.0027C17.2176 10.5565 16.6629 10.3334 15.9996 10.3334C15.3364 10.3334 14.7817 10.5565 14.3355 11.0027C13.8894 11.4488 13.6663 12.0036 13.6663 12.6668C13.6663 13.33 13.8894 13.8848 14.3355 14.3309C14.7817 14.7771 15.3364 15.0002 15.9996 15.0002Z" fill="#3E3E3E"/>
</g>
</svg>
