<svg width="35" height="35" viewBox="0 0 35 35" fill="none" xmlns="http://www.w3.org/2000/svg">
<mask id="mask0_1902_138" style="mask-type:alpha" maskUnits="userSpaceOnUse" x="0" y="0" width="35" height="35">
<rect width="35" height="35" fill="#D9D9D9"/>
</mask>
<g mask="url(#mask0_1902_138)">
<path d="M16.4059 24.4272H18.5934V18.5938H24.4267V16.4064H18.5934V10.5731H16.4059V16.4064H10.5726V18.5938H16.4059V24.4272ZM17.5021 31.3543C15.5859 31.3543 13.7848 30.9906 12.0988 30.2634C10.4128 29.5362 8.94614 28.5493 7.69895 27.3026C6.45173 26.056 5.46435 24.59 4.73682 22.9047C4.00928 21.2194 3.64551 19.4187 3.64551 17.5026C3.64551 15.5864 4.00912 13.7853 4.73634 12.0993C5.46356 10.4132 6.45049 8.94663 7.69712 7.69944C8.94378 6.45222 10.4098 5.46484 12.0951 4.73731C13.7803 4.00977 15.581 3.646 17.4972 3.646C19.4133 3.646 21.2144 4.00961 22.9005 4.73683C24.5865 5.46405 26.0531 6.45098 27.3003 7.69761C28.5475 8.94427 29.5349 10.4102 30.2625 12.0955C30.99 13.7808 31.3538 15.5815 31.3538 17.4977C31.3538 19.4138 30.9902 21.2149 30.2629 22.901C29.5357 24.587 28.5488 26.0536 27.3022 27.3008C26.0555 28.548 24.5895 29.5354 22.9042 30.263C21.2189 30.9905 19.4182 31.3543 17.5021 31.3543Z" fill="#EF6400"/>
</g>
</svg>
