<svg width="245" height="68" viewBox="0 0 245 68" fill="none" xmlns="http://www.w3.org/2000/svg">
<circle cx="34" cy="34" r="34" fill="#EF6400"/>
<path d="M21.9115 46.1241C18.04 42.9112 15.5514 38.0247 14.2702 34.9527C14.0524 34.4305 14.7385 34.049 15.1063 34.4788C18.5251 38.4744 26.211 46.1241 34.9449 46.1241C43.6832 46.1241 51.3725 38.4666 54.7887 34.4727C55.1562 34.043 55.8537 34.4317 55.6414 34.9559C54.335 38.1827 51.7806 43.3545 47.9782 46.1241C42.1856 50.3435 38.792 50.9296 34.9449 50.9975C30.3984 51.0777 25.3793 49.0019 21.9115 46.1241Z" fill="white"/>
<path d="M113.02 48.456C112.083 48.456 111.323 48.1267 110.74 47.468C110.157 46.784 109.866 45.872 109.866 44.732C109.866 43.5667 110.385 40.6913 111.424 36.106C112.488 31.5207 113.02 28.5947 113.02 27.328C113.02 26.0613 112.526 25.428 111.538 25.428C110.17 25.428 108.663 26.036 107.016 27.252C106.839 28.62 106.319 31.014 105.458 34.434C104.597 37.8287 104.014 40.3493 103.71 41.996C103.431 43.6173 103.292 44.8713 103.292 45.758C103.292 46.6447 103.305 47.1893 103.33 47.392C102.342 47.8987 100.581 48.152 98.048 48.152H97.326C97.326 46.024 97.9213 42.4013 99.112 37.284C100.328 32.0653 100.936 28.7847 100.936 27.442C100.936 26.0993 100.467 25.428 99.53 25.428C98.162 25.428 96.566 26.0867 94.742 27.404C94.4633 28.7973 93.944 31.0647 93.184 34.206C91.4867 41.4007 90.638 45.796 90.638 47.392C89.65 47.8987 87.902 48.152 85.394 48.152H84.672C84.7733 47.012 85.4447 43.668 86.686 38.12C87.9273 32.5467 88.7 28.3793 89.004 25.618C89.004 25.2127 88.8647 24.7313 88.586 24.174C88.3327 23.5913 88.0667 23.1227 87.788 22.768L87.408 22.236L87.522 21.666C88.9407 21.2353 91.3853 21.02 94.856 21.02C95.1853 21.628 95.35 22.4007 95.35 23.338C95.35 23.5407 95.2993 24.0727 95.198 24.934C98.1113 22.3247 100.721 21.02 103.026 21.02C104.065 21.02 104.939 21.3747 105.648 22.084C106.357 22.7933 106.813 23.718 107.016 24.858C110.031 22.2993 112.589 21.02 114.692 21.02C116.009 21.02 117.073 21.4507 117.884 22.312C118.695 23.1733 119.1 24.3767 119.1 25.922C119.1 27.4673 118.555 30.4187 117.466 34.776C116.402 39.108 115.87 42.1353 115.87 43.858C115.87 44.5927 115.997 44.96 116.25 44.96C116.478 44.96 117.099 44.7067 118.112 44.2L118.644 43.972L119.404 45.378C118.315 46.3153 117.213 47.0627 116.098 47.62C115.009 48.1773 113.983 48.456 113.02 48.456ZM91.664 33.18C91.6387 33.2307 91.626 33.294 91.626 33.37L91.664 33.18ZM120.838 41.426C120.838 38.2593 121.788 35.764 123.688 33.94C125.613 32.0907 127.792 31.166 130.224 31.166C131.718 31.166 132.947 31.5333 133.91 32.268C134.872 33.0027 135.354 33.9907 135.354 35.232C135.354 36.448 135.037 37.474 134.404 38.31C133.796 39.146 133.048 39.792 132.162 40.248C130.363 41.1347 128.716 41.692 127.222 41.92L126.31 42.034C126.487 44.4153 127.462 45.606 129.236 45.606C129.844 45.606 130.49 45.454 131.174 45.15C131.858 44.846 132.39 44.542 132.77 44.238L133.34 43.782L134.252 44.998C134.049 45.2767 133.644 45.644 133.036 46.1C132.428 46.556 131.858 46.936 131.326 47.24C129.856 48.0507 128.248 48.456 126.5 48.456C124.752 48.456 123.371 47.8353 122.358 46.594C121.344 45.3527 120.838 43.63 120.838 41.426ZM126.272 40.172C127.564 39.944 128.59 39.3993 129.35 38.538C130.11 37.6767 130.49 36.562 130.49 35.194C130.49 33.826 130.084 33.142 129.274 33.142C128.311 33.142 127.564 33.9653 127.032 35.612C126.525 37.2333 126.272 38.7533 126.272 40.172ZM137.193 48.114H136.471C136.471 46.9233 136.826 44.6433 137.535 41.274C138.27 37.9047 138.637 35.992 138.637 35.536C138.637 34.7 138.283 33.8133 137.573 32.876L137.231 32.42L137.269 31.926C138.637 31.546 140.829 31.356 143.843 31.356C144.198 31.8373 144.375 32.6227 144.375 33.712C146.655 32.0147 148.467 31.166 149.809 31.166C151.507 31.166 152.507 32.04 152.811 33.788C153.495 33.2307 154.382 32.6607 155.471 32.078C156.586 31.47 157.574 31.166 158.435 31.166C159.322 31.166 160.057 31.4573 160.639 32.04C161.222 32.5973 161.513 33.3827 161.513 34.396C161.513 35.4093 161.235 37.0813 160.677 39.412C160.12 41.7427 159.841 43.3133 159.841 44.124C159.841 44.9093 159.955 45.302 160.183 45.302C160.335 45.302 160.855 45.0613 161.741 44.58L162.159 44.352L162.843 45.682C162.185 46.3407 161.285 46.974 160.145 47.582C159.031 48.1647 158.043 48.456 157.181 48.456C155.281 48.456 154.331 47.3793 154.331 45.226C154.331 44.4407 154.597 42.87 155.129 40.514C155.687 38.1327 155.965 36.5873 155.965 35.878C155.965 35.1433 155.75 34.776 155.319 34.776C154.585 34.776 153.749 35.0547 152.811 35.612C152.761 36.1187 152.406 37.8413 151.747 40.78C151.114 43.7187 150.797 45.9987 150.797 47.62C150.063 47.9493 148.34 48.114 145.629 48.114C145.579 47.8353 145.553 47.164 145.553 46.1C145.553 45.036 145.845 43.2247 146.427 40.666C147.035 38.1073 147.339 36.486 147.339 35.802C147.339 35.118 147.099 34.776 146.617 34.776C145.857 34.776 145.021 35.08 144.109 35.688C144.059 35.916 143.805 37.0307 143.349 39.032C142.437 43.0347 141.981 45.8847 141.981 47.582C141.095 47.9367 139.499 48.114 137.193 48.114ZM163.922 41.426C163.922 38.2593 164.872 35.764 166.772 33.94C168.697 32.0907 170.876 31.166 173.308 31.166C174.802 31.166 176.031 31.5333 176.994 32.268C177.956 33.0027 178.438 33.9907 178.438 35.232C178.438 36.448 178.121 37.474 177.488 38.31C176.88 39.146 176.132 39.792 175.246 40.248C173.447 41.1347 171.8 41.692 170.306 41.92L169.394 42.034C169.571 44.4153 170.546 45.606 172.32 45.606C172.928 45.606 173.574 45.454 174.258 45.15C174.942 44.846 175.474 44.542 175.854 44.238L176.424 43.782L177.336 44.998C177.133 45.2767 176.728 45.644 176.12 46.1C175.512 46.556 174.942 46.936 174.41 47.24C172.94 48.0507 171.332 48.456 169.584 48.456C167.836 48.456 166.455 47.8353 165.442 46.594C164.428 45.3527 163.922 43.63 163.922 41.426ZM169.356 40.172C170.648 39.944 171.674 39.3993 172.434 38.538C173.194 37.6767 173.574 36.562 173.574 35.194C173.574 33.826 173.168 33.142 172.358 33.142C171.395 33.142 170.648 33.9653 170.116 35.612C169.609 37.2333 169.356 38.7533 169.356 40.172ZM197.111 48.456C196.123 48.456 195.313 48.1393 194.679 47.506C194.046 46.8473 193.729 45.9733 193.729 44.884C193.729 43.7693 194.287 40.6407 195.401 35.498C194.743 35.346 193.679 35.27 192.209 35.27C190.74 35.27 189.334 35.3967 187.991 35.65C186.699 41.4767 186.015 45.378 185.939 47.354C185.027 47.8607 183.102 48.114 180.163 48.114H179.783C179.859 46.9993 180.531 43.668 181.797 38.12C183.089 32.572 183.887 28.4047 184.191 25.618C184.191 25.2127 184.065 24.7313 183.811 24.174C183.558 23.5913 183.305 23.1227 183.051 22.768L182.633 22.236L182.747 21.666C184.242 21.2353 186.611 21.02 189.853 21.02C190.157 21.5267 190.309 22.35 190.309 23.49C190.309 24.63 189.739 27.7713 188.599 32.914H195.933C196.82 28.4047 197.276 25.1873 197.301 23.262C197.301 22.8313 197.276 22.4767 197.225 22.198C199.252 21.4127 201.291 21.02 203.343 21.02C203.419 21.172 203.457 21.552 203.457 22.16C203.457 23.5533 202.837 27.138 201.595 32.914C200.379 38.69 199.771 42.3633 199.771 43.934C199.771 44.618 199.885 44.96 200.113 44.96C200.341 44.96 201.114 44.6307 202.431 43.972L203.115 45.378C200.861 47.43 198.859 48.456 197.111 48.456ZM205.421 45.15C205.421 44.0607 205.75 42.2113 206.409 39.602C207.067 36.9673 207.397 35.3587 207.397 34.776C207.397 34.168 206.941 33.37 206.029 32.382L206.067 31.888C207.789 31.5333 210.057 31.356 212.869 31.356C212.995 31.6853 213.059 32.2807 213.059 33.142C213.059 34.0033 212.704 35.84 211.995 38.652C211.285 41.464 210.931 43.212 210.931 43.896C210.931 44.58 211.184 44.922 211.691 44.922C212.425 44.922 213.274 44.656 214.237 44.124C214.338 43.516 214.591 42.3507 214.997 40.628C215.909 36.5747 216.365 33.674 216.365 31.926C217.251 31.5713 218.847 31.394 221.153 31.394H221.875C221.875 32.5847 221.52 34.9153 220.811 38.386C220.101 41.8313 219.747 43.858 219.747 44.466C219.747 45.0487 219.873 45.34 220.127 45.34C220.279 45.34 221.001 45.036 222.293 44.428L223.015 45.644C220.76 47.5187 218.784 48.456 217.087 48.456C216.276 48.456 215.579 48.228 214.997 47.772C214.439 47.316 214.123 46.7207 214.047 45.986C211.995 47.658 210.133 48.494 208.461 48.494C207.574 48.494 206.839 48.2027 206.257 47.62C205.699 47.0373 205.421 46.214 205.421 45.15ZM233.921 21.476C233.921 23.4013 233.275 27.176 231.983 32.8C233.503 31.7107 234.871 31.166 236.087 31.166C237.329 31.166 238.38 31.6853 239.241 32.724C240.128 33.7373 240.571 35.2953 240.571 37.398C240.571 40.9193 239.875 43.6427 238.481 45.568C237.113 47.4933 235.441 48.456 233.465 48.456C232.731 48.456 231.983 48.3673 231.223 48.19C230.489 48.0127 229.931 47.8227 229.551 47.62L228.981 47.354C227.36 47.9113 225.777 48.19 224.231 48.19C224.079 48.0633 224.003 47.4553 224.003 46.366C224.003 45.2513 224.713 41.6033 226.131 35.422C227.55 29.2153 228.259 24.972 228.259 22.692C228.259 22.2867 228.196 21.7673 228.069 21.134C230.045 20.45 231.933 20.108 233.731 20.108C233.858 20.4627 233.921 20.9187 233.921 21.476ZM233.579 34.396C233.098 34.396 232.376 34.624 231.413 35.08C230.248 39.9947 229.615 43.516 229.513 45.644C230.273 45.9733 230.995 46.138 231.679 46.138C232.642 46.138 233.44 45.2513 234.073 43.478C234.732 41.7047 235.061 39.754 235.061 37.626C235.061 35.4727 234.567 34.396 233.579 34.396Z" fill="#EF6400"/>
<path fill-rule="evenodd" clip-rule="evenodd" d="M49.5276 25.0698C50.2456 25.0698 50.7409 24.3525 50.4156 23.7125C48.7943 20.5218 46.0088 18.4166 42.8446 18.4166C39.6805 18.4166 36.895 20.5218 35.2736 23.7125C34.9483 24.3525 35.4437 25.0698 36.1616 25.0698C36.5659 25.0698 36.9288 24.8306 37.1189 24.4737C38.4826 21.9142 40.6966 20.4166 42.8446 20.4166C44.9926 20.4166 47.2066 21.9142 48.5703 24.4737C48.7604 24.8306 49.1233 25.0698 49.5276 25.0698Z" fill="white"/>
<path fill-rule="evenodd" clip-rule="evenodd" d="M31.1106 25.0698C31.8286 25.0698 32.3239 24.3525 31.9987 23.7125C30.3773 20.5218 27.5918 18.4166 24.4276 18.4166C21.2635 18.4166 18.478 20.5218 16.8566 23.7125C16.5313 24.3525 17.0267 25.0698 17.7446 25.0698C18.1489 25.0698 18.5118 24.8306 18.7019 24.4737C20.0656 21.9142 22.2796 20.4166 24.4276 20.4166C26.5757 20.4166 28.7896 21.9142 30.1533 24.4737C30.3435 24.8306 30.7063 25.0698 31.1106 25.0698Z" fill="white"/>
</svg>
