<svg width="24" height="24" viewBox="0 0 24 24" fill="none" xmlns="http://www.w3.org/2000/svg">
<mask id="mask0_971_1149" style="mask-type:alpha" maskUnits="userSpaceOnUse" x="0" y="0" width="25" height="25">
<rect x="24.0039" y="24.0007" width="24" height="24" transform="rotate(180 24.0039 24.0007)" fill="#D9D9D9"/>
</mask>
<g mask="url(#mask0_971_1149)">
<path d="M17.7347 20.0969H7.21551V8.09698L13.8501 1.50088L14.6962 2.34698C14.8001 2.45083 14.8863 2.58833 14.9549 2.75948C15.0235 2.93063 15.0578 3.09184 15.0578 3.24313V3.49698L13.9962 8.09698H20.6962C21.1719 8.09698 21.5921 8.27935 21.9568 8.6441C22.3215 9.00883 22.5039 9.42903 22.5039 9.90468V11.52C22.5039 11.6239 22.4904 11.7361 22.4635 11.8566C22.4366 11.9771 22.4065 12.0893 22.3732 12.1931L19.5078 18.9546C19.3642 19.2751 19.1238 19.5456 18.7866 19.7661C18.4494 19.9867 18.0988 20.0969 17.7347 20.0969ZM8.71549 18.5969H17.7347C17.8052 18.5969 17.8773 18.5777 17.9511 18.5392C18.0248 18.5008 18.0809 18.4367 18.1194 18.3469L21.004 11.597V9.90468C21.004 9.81493 20.9751 9.7412 20.9174 9.6835C20.8597 9.6258 20.786 9.59695 20.6962 9.59695H12.1001L13.354 4.11618L8.71549 8.73543V18.5969ZM7.21551 8.09698V9.59695H4.00396V18.5969H7.21551V20.0969H2.50399V8.09698H7.21551Z" fill="#777777"/>
</g>
</svg>
