<svg width="24" height="24" viewBox="0 0 24 24" fill="none" xmlns="http://www.w3.org/2000/svg">
<mask id="mask0_1901_142" style="mask-type:alpha" maskUnits="userSpaceOnUse" x="0" y="0" width="24" height="24">
<rect width="24" height="24" fill="#D9D9D9"/>
</mask>
<g mask="url(#mask0_1901_142)">
<path d="M6.2692 3.90381H16.7884V15.9038L10.1538 22.4999L9.30768 21.6538C9.20384 21.5499 9.11763 21.4124 9.04903 21.2413C8.98044 21.0701 8.94615 20.9089 8.94615 20.7576V20.5038L10.0077 15.9038H3.30768C2.83203 15.9038 2.41183 15.7214 2.0471 15.3566C1.68237 14.9919 1.5 14.5717 1.5 14.0961V12.4807C1.5 12.3769 1.51346 12.2647 1.54038 12.1442C1.56729 12.0237 1.59742 11.9115 1.63075 11.8076L4.49612 5.04613C4.63972 4.72562 4.88011 4.4551 5.21727 4.23458C5.55446 4.01407 5.9051 3.90381 6.2692 3.90381ZM15.2884 5.40378H6.2692C6.19868 5.40378 6.12657 5.42302 6.05285 5.46148C5.97912 5.49995 5.92302 5.56406 5.88455 5.65381L2.99995 12.4038V14.0961C2.99995 14.1858 3.0288 14.2595 3.0865 14.3172C3.1442 14.3749 3.21793 14.4038 3.30768 14.4038H11.9038L10.65 19.8846L15.2884 15.2653V5.40378ZM16.7884 15.9038V14.4038H20V5.40378H16.7884V3.90381H21.4999V15.9038H16.7884Z" fill="#777777"/>
</g>
</svg>
